<svg id="logo_otsukai" data-name="logo_otsukai" xmlns="http://www.w3.org/2000/svg" viewBox="0 0 156 38"><defs><style>.cls-1{fill:#fff;}</style></defs><title>otsukai_lp_images</title><g id="logo"><path class="cls-1" d="M18.87,37.73A18.87,18.87,0,1,1,37.73,18.87,18.88,18.88,0,0,1,18.87,37.73Zm0-31.12A12.26,12.26,0,1,0,31.12,18.87,12.27,12.27,0,0,0,18.87,6.61Z"/><path class="cls-1" d="M152.37,12.33a3.63,3.63,0,1,0-3.63-3.62A3.63,3.63,0,0,0,152.37,12.33Z"/><path class="cls-1" d="M51.88,31.2H50a1.44,1.44,0,0,1-1.36-1.35V20.32h3.27a3.27,3.27,0,0,0,0-6.53H48.61V10.92A3.66,3.66,0,0,0,45,7.26H42.81a3.63,3.63,0,0,0-.73,7.18V29.88c0,5.15,4,7.85,8,7.85,0,0,2.17,0,2.26,0a3.26,3.26,0,0,0-.45-6.49Z"/><path class="cls-1" d="M66.75,22.49c-1.45,0-2.17-.72-2.17-1.45s.72-1.45,2.17-1.45h5.81A2.53,2.53,0,0,0,74,19.23a3.26,3.26,0,0,0-1.46-6.17H66a7.73,7.73,0,0,0-8,8c0,4.78,3.5,8,8.7,8,1.33,0,2.91-.36,2.91,1.09,0,1.09-1.91,1.09-2.91,1.09H61.31a3.26,3.26,0,0,0-.08,6.52h6.25c5.29,0,8.71-2.85,8.71-7.26C76.19,25.85,71.94,22.5,66.75,22.49Z"/><path class="cls-1" d="M118.65,31.57l-5.54-5.64a.36.36,0,0,1,0-.51L118.6,20c1.12-1.11,1.85-1.64,1.85-2.93a3.27,3.27,0,0,0-3.27-3.26c-1.21,0-1.81.72-2.82,1.65l-5.63,5.17a.36.36,0,0,1-.62-.26V5.12a3.67,3.67,0,0,0-3.67-3.67h-1.37c-.13,0-.26,0-.38,0s-.25,0-.38,0a3.63,3.63,0,0,0-.73,7.18v26.2a.19.19,0,0,0,0,.1,3.26,3.26,0,0,0,6.48-.47c0-.1,0-.2,0-.3s0,0,0-.06V31.23a.36.36,0,0,1,.62-.26L115,37.2c.41.53,1.86.53,2.61.49a3.26,3.26,0,0,0,2.88-3.23C120.45,33.2,119.72,32.65,118.65,31.57Z"/><path class="cls-1" d="M94.29,13.06H92.15a3.63,3.63,0,0,0-.73,7.18v7.33c0,3.19-1.39,3.63-2.9,3.63s-2.9-.44-2.9-3.63V16.18a3.12,3.12,0,0,0-3.12-3.12h-.15a3.26,3.26,0,0,0-3.26,3.27v12A9.43,9.43,0,0,0,98,28.3V16.72A3.66,3.66,0,0,0,94.29,13.06Z"/><path class="cls-1" d="M152,13.79h-2.5a3.63,3.63,0,1,0,0,7.25V34.47a3.27,3.27,0,0,0,6.53,0V17.81A4,4,0,0,0,152,13.79Z"/><path class="cls-1" d="M142.94,30.78V18.55a4.75,4.75,0,0,0-4.75-4.75v0c-.25,0-2.47,0-4.68,0A11.48,11.48,0,0,0,122,25.52c0,6.73,5.15,12.21,11.49,12.21h8a3.63,3.63,0,0,0,1.45-6.95Zm-6.53.42h-2.18a5.39,5.39,0,0,1-5.58-5.68c0-3.38,2.88-5.2,5.58-5.2h2.18Z"/></g></svg>